<svg xmlns="http://www.w3.org/2000/svg" version="1.1" xmlns:xlink="http://www.w3.org/1999/xlink" xmlns:svgjs="http://svgjs.dev/svgjs" width="1920" height="1080" preserveAspectRatio="none" viewBox="0 0 1920 1080"><g mask="url(&quot;#SvgjsMask1039&quot;)" fill="none"><rect width="1920" height="1080" x="0" y="0" fill="url(&quot;#SvgjsLinearGradient1040&quot;)"></rect><path d="M502.03 0C525.61 2.72 521.73 31.15 540 31.15C556.5 31.15 550.39 2.44 571.56 0C685.39 -13.13 690.78 0 810 0C945 0 945 0 1080 0C1215 0 1215 0 1350 0C1485 0 1485 0 1620 0C1755 0 1755 0 1890 0C1975.72 0 2049.33 -50.14 2061.43 0C2081.91 84.86 1927.4 167.8 1955.17 270C1976.69 349.21 2102.72 287.3 2160 362.81C2205.13 422.3 2160 451.4 2160 540C2160 675 2160 675 2160 810C2160 945 2227.5 1012.5 2160 1080C2092.5 1147.5 2025 1080 1890 1080C1755 1080 1755 1080 1620 1080C1531.73 1080 1530.22 1089.64 1443.46 1080C1395.22 1074.64 1395.25 1050 1350 1050C1321.52 1050 1326.02 1076.66 1296 1080C1191.02 1091.66 1188 1080 1080 1080C991.64 1080 986.78 1097.43 903.27 1080C851.78 1069.25 859.68 1023.63 810 1023.63C730.31 1023.63 729.01 1062.36 644.52 1080C594.01 1090.55 592.26 1080 540 1080C432 1080 324 1116 324 1080C324 1035 453.97 1013.59 540 918C575.47 878.59 567 864.57 567 810C567 727.49 573.51 717.14 540 643.85C511.79 582.14 494.95 588.66 443.57 540C359.95 460.8 332.03 388.13 270 388.13C228.13 388.13 281.03 481.14 235.77 540C146.03 656.72 71.64 739.29 0 739.29C-46.25 739.29 0 639.64 0 540C0 405 0 405 0 270C0 135 -67.5 67.5 0 0C67.5 -67.5 135 0 270 0C386.01 0 390.61 -12.85 502.03 0" stroke="rgba(51, 121, 194, 0.58)" stroke-width="2"></path><path d="M1620 522C1600.04 522 1583.29 519.4 1578.46 540C1549.54 663.4 1539.79 678.99 1552.5 810C1560.56 893.01 1585.14 968.05 1620 968.05C1655.3 968.05 1687.56 893.16 1692.81 810C1701.06 679.13 1679.55 668.74 1647 540C1643.14 524.74 1634.31 522 1620 522" stroke="rgba(51, 121, 194, 0.58)" stroke-width="2"></path><path d="M270 168.75C151.04 153.38 74.35 271.47 0 225C-60.65 187.09 -61.36 51.14 0 0C73.64 -61.36 135 0 270 0C333.28 0 341.82 -23.86 396.56 0C476.82 34.98 470.98 117.69 540 117.69C602.31 117.69 588.17 30.97 659.22 0C723.17 -27.87 734.61 0 810 0C945 0 945 0 1080 0C1215 0 1215 0 1350 0C1485 0 1485 0 1620 0C1755 0 1755 0 1890 0C1922.14 0 1954.29 -19.45 1954.29 0C1954.29 41.92 1925.82 63.56 1890 122.73C1844.09 198.56 1851.03 206.05 1790.82 270C1716.03 349.43 1705.06 409.5 1620 409.5C1535.95 409.5 1533.96 342.34 1452.6 270C1398.96 222.3 1414.36 180.81 1350 169.41C1228.06 147.81 1204.91 166.44 1080 204C1037.63 216.74 1015.43 236.05 1015.43 270C1015.43 306.18 1043.05 311.99 1080 344.25C1197.68 446.99 1201.5 443.3 1324.69 540C1336.5 549.27 1342.52 543.37 1350 556.2C1421.27 678.37 1482.19 690.42 1482.19 810C1482.19 895.66 1428.61 903.54 1350 966.67C1260.51 1038.54 1251.24 1035.83 1146 1080C1116.24 1092.49 1113 1080 1080 1080C1053 1080 1049.79 1091.5 1026 1080C914.79 1026.23 911.98 1022.95 810 949.45C724.67 887.95 670.78 898.28 651.38 810C625.78 693.56 752.5 643.4 720 540C696.81 466.22 619.34 513.27 540 455.63C433.53 378.27 439.61 366.92 348.39 270C304.61 223.48 325.23 175.88 270 168.75" stroke="rgba(51, 121, 194, 0.58)" stroke-width="2"></path><path d="M0 290.25C37.6 290.25 140.7 427.78 140.7 540C140.7 612.12 42.75 658.93 0 658.93C-27.6 658.93 0 599.46 0 540C0 415.13 -32.75 290.25 0 290.25" stroke="rgba(51, 121, 194, 0.58)" stroke-width="2"></path><path d="M1815.75 540C1834.91 481.2 1835.33 448.98 1890 437.59C2007.45 413.12 2053.19 427.77 2160 468.28C2188.19 478.97 2160 504.14 2160 540C2160 675 2160 675 2160 810C2160 945 2227.5 1012.5 2160 1080C2092.5 1147.5 2025 1080 1890 1080C1791 1080 1717.1 1135.84 1692 1080C1656.42 1000.84 1737.34 946.6 1768.65 810C1799.22 676.6 1774.24 667.4 1815.75 540" stroke="rgba(51, 121, 194, 0.58)" stroke-width="2"></path><path d="M270 28.12C229.54 28.12 180 7.19 180 0C180 -6.87 225 0 270 0C280.54 0 291.09 -5.27 291.09 0C291.09 8.79 285.08 28.12 270 28.12" stroke="rgba(51, 121, 194, 0.58)" stroke-width="2"></path><path d="M457.26 270C457.26 235.09 501.39 240.23 540 204.23C646.2 105.23 635.96 83.9 746.88 0C770.96 -18.22 778.44 0 810 0C945 0 945 0 1080 0C1215 0 1215 0 1350 0C1485 0 1485 0 1620 0C1693.64 0 1761.74 -45.14 1767.27 0C1778.27 89.86 1717.34 140.37 1653.06 270C1643.7 288.87 1636.46 297 1620 297C1603.73 297 1602.79 284.62 1587.6 270C1467.79 154.65 1489.99 96.63 1350 37.06C1236.19 -11.37 1193.68 -1.02 1080 54C953.03 115.45 964.66 154.85 868.7 270C829.66 316.85 861.23 365.51 810 378C696.88 405.59 663.82 388.07 540 350.16C487.45 334.07 457.26 308.05 457.26 270" stroke="rgba(51, 121, 194, 0.58)" stroke-width="2"></path><path d="M0 459C12.19 459 45.63 503.6 45.63 540C45.63 563.39 13.86 578.57 0 578.57C-8.95 578.57 0 559.29 0 540C0 499.5 -10.62 459 0 459" stroke="rgba(51, 121, 194, 0.58)" stroke-width="2"></path><path d="M1023.16 540C1051.24 525.81 1053.15 513 1080 513C1098.44 513 1095.73 528.1 1113.75 540C1230.73 617.2 1249.11 599.83 1350 691.2C1398.18 734.83 1411.88 754.03 1411.88 810C1411.88 850.09 1393.5 872.71 1350 883.33C1227.56 913.21 1214.91 893.01 1080 891C944.91 888.98 936.05 904.93 810 875.27C763.93 864.43 735.75 850.48 735.75 810C735.75 737.57 748.97 706.79 810 649.46C892.68 571.79 916.24 594.04 1023.16 540" stroke="rgba(51, 121, 194, 0.58)" stroke-width="2"></path><path d="M1844.49 810C1844.49 738.86 1840.74 670.34 1890 670.34C1982.61 670.34 2012.13 736.28 2128.24 810C2147.13 821.99 2157.48 820.35 2160 841.76C2173.36 955.35 2217.86 1018.74 2160 1080C2105.36 1137.86 2040.24 1097.54 1935 1080C1905.24 1075.04 1899.82 1064.3 1890 1035C1854.57 929.3 1844.49 921.19 1844.49 810" stroke="rgba(51, 121, 194, 0.58)" stroke-width="2"></path></g><defs><mask id="SvgjsMask1039"><rect width="1920" height="1080" fill="#ffffff"></rect></mask><linearGradient x1="10.94%" y1="-19.44%" x2="89.06%" y2="119.44%" gradientUnits="userSpaceOnUse" id="SvgjsLinearGradient1040"><stop stop-color="#0e2a47" offset="0"></stop><stop stop-color="#00459e" offset="1"></stop></linearGradient></defs></svg>